<?xml version="1.0" standalone="no"?>
<!DOCTYPE svg PUBLIC "-//W3C//DTD SVG 20010904//EN"
 "http://www.w3.org/TR/2001/REC-SVG-20010904/DTD/svg10.dtd">
<svg version="1.0" xmlns="http://www.w3.org/2000/svg"
 width="500.000000pt" height="500.000000pt" viewBox="0 0 500.000000 500.000000"
 preserveAspectRatio="xMidYMid meet">

<g transform="translate(0.000000,500.000000) scale(0.100000,-0.100000)"
fill="#000000" stroke="none">
<path d="M2385 4454 c-163 -24 -248 -42 -350 -75 -129 -43 -351 -147 -427
-201 -197 -140 -348 -291 -461 -461 -181 -272 -271 -545 -284 -867 -7 -189 6
-317 53 -496 40 -158 90 -275 180 -430 184 -313 458 -540 831 -687 131 -52
221 -75 358 -92 216 -27 511 -12 665 34 272 81 499 205 697 379 176 155 361
440 434 665 73 227 93 348 93 572 -1 199 -20 318 -83 512 -184 563 -667 996
-1251 1119 -111 23 -375 40 -455 28z m334 -159 c230 -33 427 -111 646 -254 83
-54 247 -210 324 -307 100 -128 137 -185 193 -304 101 -212 137 -359 145 -595
5 -146 2 -188 -16 -294 -22 -131 -45 -214 -81 -296 -57 -127 -128 -272 -141
-285 -8 -8 -41 -51 -73 -95 -127 -174 -360 -358 -583 -461 -42 -19 -131 -51
-199 -69 -108 -30 -158 -39 -326 -60 l-38 -5 0 263 0 264 54 6 c100 10 208 68
292 157 71 75 95 115 127 214 26 83 29 101 25 194 l-5 102 36 -21 c209 -124
266 -146 354 -136 121 15 233 103 332 262 54 86 129 260 121 280 -9 24 -77 36
-226 42 -171 6 -249 -8 -347 -63 -84 -47 -127 -111 -142 -213 -10 -70 -24 -72
-142 -14 -57 27 -135 60 -173 73 -64 21 -68 24 -50 37 79 59 330 167 470 203
103 27 245 50 314 51 86 2 105 10 105 44 l0 30 -110 0 c-60 0 -140 -4 -177 -9
l-66 -8 21 81 c20 74 20 82 5 97 -33 33 -56 10 -84 -84 -14 -48 -27 -92 -29
-98 -2 -7 -48 -26 -102 -44 -113 -37 -329 -139 -421 -199 -52 -34 -71 -41
-110 -40 -26 0 -55 4 -65 8 -17 6 -14 11 20 42 41 37 207 149 286 193 52 30
64 66 27 86 -17 9 -38 2 -121 -41 -56 -29 -129 -74 -163 -101 l-61 -49 -3 71
c-2 58 1 76 15 92 26 29 191 152 249 186 l52 30 19 -27 c27 -35 110 -80 165
-87 199 -27 358 198 402 569 5 39 3 49 -11 54 -45 17 -319 -60 -428 -120 -95
-53 -165 -165 -165 -262 0 -31 -6 -37 -111 -101 -61 -38 -121 -78 -132 -89
-50 -47 -57 -50 -57 -24 0 18 13 31 50 54 57 33 102 85 133 153 31 66 30 213
-2 331 -41 154 -138 359 -198 419 -20 20 -26 22 -39 11 -55 -45 -154 -243
-200 -397 -38 -126 -44 -276 -14 -354 26 -70 96 -150 150 -172 32 -13 40 -21
40 -42 0 -24 -2 -25 -19 -13 -110 81 -175 126 -222 152 -56 31 -57 32 -63 86
-18 152 -113 245 -316 310 -90 29 -229 61 -264 61 l-29 0 5 -87 c9 -149 92
-359 178 -450 105 -112 252 -121 364 -22 l47 42 42 -23 c51 -28 188 -128 240
-174 l38 -34 -3 -72 -3 -73 -55 45 c-67 55 -113 83 -208 128 l-74 35 -19 -24
c-11 -14 -16 -28 -11 -37 4 -8 50 -39 102 -69 52 -31 134 -88 183 -128 96 -78
97 -84 5 -88 -36 -2 -52 4 -94 34 -28 20 -55 37 -59 37 -4 0 -33 15 -64 34
-69 42 -243 116 -331 141 -36 10 -70 23 -77 29 -6 6 -23 50 -37 98 -28 92 -44
113 -75 103 -30 -9 -32 -28 -6 -110 l23 -77 -36 6 c-20 3 -98 8 -173 12 -130
7 -137 6 -147 -13 -22 -40 4 -54 120 -63 192 -16 314 -44 498 -117 118 -46
227 -100 268 -131 l24 -19 -94 -33 c-51 -18 -129 -52 -174 -75 -96 -51 -107
-47 -123 39 -24 132 -106 211 -258 250 -95 25 -340 19 -435 -10 -10 -3 -18
-15 -18 -27 1 -82 137 -325 240 -428 89 -89 226 -129 329 -95 27 9 71 29 98
45 106 63 176 102 178 99 2 -2 -1 -30 -6 -63 -10 -69 4 -196 28 -259 42 -108
156 -240 248 -288 62 -32 145 -58 186 -58 l39 0 0 -265 0 -265 -23 4 c-12 3
-53 8 -92 11 -38 4 -133 23 -210 42 -158 39 -290 97 -428 186 -48 31 -91 57
-95 57 -4 0 -18 10 -32 23 -14 13 -56 51 -95 84 -38 34 -82 74 -97 90 -44 45
-158 202 -195 268 -36 64 -37 67 -77 165 -15 36 -31 72 -35 81 -15 27 -50 161
-66 254 -22 123 -21 362 0 491 18 107 57 238 106 355 105 258 359 553 595 694
98 58 258 134 352 165 187 63 437 84 641 55z m-239 -585 c0 -126 -3 -230 -7
-230 -5 0 -33 23 -63 50 l-54 50 27 109 c22 93 81 251 93 251 2 0 4 -103 4
-230z m150 53 c54 -163 53 -176 -16 -236 l-54 -49 0 229 c1 263 1 263 70 56z
m-883 -165 c34 -34 65 -60 67 -57 3 3 -6 28 -19 57 -33 72 -12 55 26 -21 17
-34 42 -78 55 -99 13 -21 24 -40 24 -43 0 -3 -36 -5 -80 -5 -77 0 -80 1 -94
28 -13 24 -29 82 -50 175 -4 15 -3 27 1 27 4 0 36 -28 70 -62z m1599 -32 c-9
-36 -22 -82 -30 -101 l-15 -35 -80 0 c-45 0 -81 2 -81 5 0 3 18 37 40 76 22
39 43 82 46 95 3 13 12 28 20 35 18 15 18 5 0 -29 -38 -75 -29 -78 40 -12 78
74 84 70 60 -34z m-1336 -32 c44 -40 73 -105 68 -154 l-3 -33 -51 47 c-29 25
-72 79 -98 119 -68 110 -69 114 -7 83 28 -15 69 -43 91 -62z m1144 54 c-41
-80 -99 -161 -142 -199 l-47 -41 -3 47 c-5 77 46 149 143 198 65 34 69 33 49
-5z m-488 -150 c-15 -54 -56 -116 -88 -137 -16 -10 -18 -6 -18 36 0 44 4 51
57 105 31 32 59 56 61 53 2 -2 -3 -28 -12 -57z m-188 -108 l-3 -43 -33 28
c-39 32 -68 85 -77 140 l-7 40 62 -61 c59 -58 61 -62 58 -104z m-498 -21 c61
-55 59 -63 -16 -75 -67 -10 -146 33 -180 99 l-15 27 78 0 78 -1 55 -50z m1280
46 c0 -16 -49 -76 -78 -96 -40 -27 -137 -34 -165 -11 -15 12 -11 19 36 63 l52
48 78 1 c42 0 77 -2 77 -5z m-1751 -572 l23 -36 -23 7 c-13 4 -76 10 -139 13
-105 5 -129 12 -130 35 0 9 49 15 155 16 l90 2 24 -37z m2254 29 c36 -7 37 -8
24 -27 -13 -17 -25 -19 -99 -16 -47 1 -104 -3 -127 -9 -24 -6 -45 -10 -46 -8
-2 2 5 18 17 36 l20 32 86 -1 c48 0 104 -3 125 -7z m-2140 -33 c23 -12 55 -33
70 -48 29 -27 62 -79 54 -87 -2 -3 -32 13 -67 33 -42 26 -70 52 -87 81 -14 23
-22 42 -19 42 4 0 26 -9 49 -21z m1815 -28 c-17 -31 -39 -50 -85 -76 -70 -39
-77 -32 -35 30 18 25 48 50 82 67 30 15 56 26 57 24 2 -1 -7 -22 -19 -45z
m-2128 -7 c0 -2 -9 -4 -21 -4 -11 0 -18 4 -14 10 5 8 35 3 35 -6z m2443 -1
c-7 -2 -21 -2 -30 0 -10 3 -4 5 12 5 17 0 24 -2 18 -5z m-2231 -85 c51 -23 65
-34 54 -40 -15 -8 -208 -50 -211 -46 -34 44 -65 94 -65 105 0 10 19 13 77 13
65 0 87 -5 145 -32z m2213 22 c6 -9 -45 -93 -63 -104 -9 -5 -218 37 -227 46
-3 3 27 20 67 37 58 24 87 30 145 31 39 0 75 -4 78 -10z m-1032 -61 c56 -12
132 -35 169 -51 62 -28 68 -33 83 -77 23 -67 30 -169 15 -232 -51 -214 -232
-359 -450 -359 -187 1 -336 92 -418 259 -36 73 -37 77 -37 190 0 155 13 184
105 222 159 67 357 84 533 48z m-989 -75 c25 -14 48 -29 51 -33 9 -16 -138
-75 -196 -79 -62 -5 -98 9 -138 52 l-24 25 24 5 c13 3 53 12 89 20 36 8 76 19
90 25 39 15 54 13 104 -15z m1788 -6 c123 -31 127 -32 111 -50 -40 -45 -81
-60 -146 -56 -64 4 -197 56 -197 77 0 9 83 59 100 61 3 0 62 -14 132 -32z"/>
<path d="M2203 4113 c-19 -7 -17 -80 3 -87 31 -12 54 -6 70 19 15 23 15 27 0
50 -16 24 -43 31 -73 18z"/>
<path d="M2761 4106 c-21 -25 -9 -69 21 -80 50 -17 89 42 52 78 -19 20 -58 21
-73 2z"/>
<path d="M1924 4045 c-4 -9 -4 -44 -2 -79 3 -50 10 -73 33 -106 36 -53 92 -82
148 -78 51 4 56 21 33 102 -19 63 -73 123 -141 155 -53 25 -64 26 -71 6z m116
-140 c8 -11 18 -27 22 -37 6 -15 4 -17 -10 -9 -26 14 -49 42 -62 76 l-11 29
23 -19 c12 -11 30 -29 38 -40z"/>
<path d="M3044 4046 c-46 -20 -112 -84 -136 -129 -11 -22 -21 -61 -22 -86 -1
-44 0 -46 29 -49 50 -6 100 16 143 62 44 48 55 83 50 161 -3 56 -14 63 -64 41z
m-20 -138 c-17 -32 -41 -57 -57 -58 -12 0 12 41 41 72 32 35 38 30 16 -14z"/>
<path d="M1700 3920 c-16 -30 4 -60 40 -60 33 0 47 27 30 60 -14 26 -56 26
-70 0z"/>
<path d="M3261 3926 c-8 -10 -11 -26 -7 -41 6 -22 12 -26 38 -23 38 4 58 30
42 56 -14 22 -57 27 -73 8z"/>
<path d="M1387 3633 c-4 -3 -7 -19 -7 -34 0 -39 33 -56 66 -34 24 16 29 31 18
59 -6 16 -64 23 -77 9z"/>
<path d="M3572 3628 c-18 -18 -14 -45 10 -62 35 -25 77 11 63 55 -7 22 -54 26
-73 7z"/>
<path d="M1310 3410 c-20 -12 -5 -106 27 -170 32 -62 90 -104 160 -115 40 -6
44 -5 53 20 24 62 -25 172 -98 220 -49 32 -124 56 -142 45z m108 -119 c36 -26
69 -81 48 -81 -19 0 -72 53 -79 79 -6 26 -2 26 31 2z"/>
<path d="M3675 3405 c-63 -19 -99 -40 -138 -84 -41 -46 -60 -99 -55 -156 l3
-40 43 3 c113 7 200 108 202 234 0 26 -3 49 -7 51 -5 3 -26 -1 -48 -8z m-33
-120 c-7 -38 -82 -96 -82 -64 0 11 73 89 82 89 3 0 3 -11 0 -25z"/>
<path d="M1170 3173 c-21 -8 -30 -24 -30 -53 0 -32 17 -50 46 -50 51 0 73 66
32 94 -24 17 -25 17 -48 9z"/>
<path d="M3830 3172 c-21 -7 -30 -23 -30 -52 0 -53 57 -69 86 -25 28 43 -8 92
-56 77z"/>
<path d="M1142 2478 c-17 -17 -15 -53 3 -68 12 -10 21 -10 40 -2 40 19 29 82
-15 82 -9 0 -21 -5 -28 -12z"/>
<path d="M3830 2469 c-9 -16 -8 -26 5 -45 8 -13 21 -24 29 -24 17 0 46 32 46
51 0 40 -62 53 -80 18z"/>
<path d="M1198 2273 c6 -2 18 -2 25 0 6 3 1 5 -13 5 -14 0 -19 -2 -12 -5z"/>
<path d="M3818 2273 c7 -3 16 -2 19 1 4 3 -2 6 -13 5 -11 0 -14 -3 -6 -6z"/>
<path d="M3728 2263 c7 -3 16 -2 19 1 4 3 -2 6 -13 5 -11 0 -14 -3 -6 -6z"/>
<path d="M1398 2243 c7 -3 16 -2 19 1 4 3 -2 6 -13 5 -11 0 -14 -3 -6 -6z"/>
<path d="M2426 2554 c-33 -11 -65 -32 -102 -68 -64 -65 -90 -137 -80 -223 22
-187 228 -300 394 -217 98 49 157 144 156 254 0 183 -187 312 -368 254z m58
-75 c69 -55 -7 -140 -82 -91 -23 15 -18 73 8 94 29 23 41 23 74 -3z"/>
</g>
</svg>
